<?xml version="1.0" encoding="UTF-8" standalone="no"?>
<!-- Generator: Adobe Illustrator 25.3.0, SVG Export Plug-In . SVG Version: 6.00 Build 0)  -->

<svg
   version="1.1"
   id="Layer_1"
   x="0px"
   y="0px"
   viewBox="0 0 512 512"
   xml:space="preserve"
   width="512"
   height="512"
   xmlns="http://www.w3.org/2000/svg"
   xmlns:svg="http://www.w3.org/2000/svg"><defs
   id="defs42" />
<style
   type="text/css"
   id="style1">
	.st0{fill:#010101;}
	.st1{fill:#FFFFFF;}
	.st2{fill:#23BEF0;}
	.st3{fill:#01599D;}
	.st4{fill:#87C65B;}
	.st5{fill:#FDBC5A;}
	.st6{fill:#F58220;}
	.st7{fill:#EF3A38;}
	.st8{fill:#3A77B2;}
	.st9{fill:#823185;}
</style>
<rect
   style="fill:#01599d;fill-opacity:1;stroke:#ffffff;stroke-width:0;stroke-linejoin:round"
   id="rect74-8"
   width="512"
   height="512"
   x="0"
   y="0"
   rx="0"
   ry="0" />











<g
   id="g37"
   transform="matrix(3.7209301,0,0,3.7209301,-145.86045,-71.813935)">
	
	
	<g
   id="g34">
		<path
   class="st1"
   d="M 107.5,139.8 C 79,139.8 55.8,116.6 55.8,88.1 55.8,59.6 79,36.4 107.5,36.4 c 16.3,0 31.3,7.6 41.1,20.4 l -18.9,10.9 c -5.7,-6.2 -13.8,-9.8 -22.2,-9.8 -16.6,0 -30.2,13.5 -30.2,30.2 0,16.7 13.5,30.2 30.2,30.2 8.5,0 16.6,-3.6 22.2,-9.8 l 18.9,10.9 c -9.8,12.9 -24.8,20.4 -41.1,20.4 z"
   id="path34" />
	</g>
	<g
   id="g35">
		<polygon
   class="st1"
   points="144.8,85.1 144.8,91.3 138.7,91.3 138.7,97.4 132.5,97.4 132.5,91.3 126.4,91.3 126.4,85.1 132.5,85.1 132.5,79 138.7,79 138.7,85.1 "
   id="polygon34" />
	</g>
	<g
   id="g36">
		<polygon
   class="st1"
   points="166.2,85.1 166.2,91.3 160,91.3 160,97.4 153.9,97.4 153.9,91.3 147.8,91.3 147.8,85.1 153.9,85.1 153.9,79 160,79 160,85.1 "
   id="polygon35" />
	</g>
</g>


<style
   type="text/css"
   id="style1-4">
	.st0{fill:#000000;}
</style></svg>
