<?xml version="1.0" encoding="UTF-8" standalone="no"?>
<!-- Generator: Adobe Illustrator 25.3.0, SVG Export Plug-In . SVG Version: 6.00 Build 0)  -->

<svg
   version="1.1"
   id="Layer_1"
   x="0px"
   y="0px"
   viewBox="0 0 512 512"
   xml:space="preserve"
   width="512"
   height="512"
   xmlns="http://www.w3.org/2000/svg"
   xmlns:svg="http://www.w3.org/2000/svg"><defs
   id="defs42" />
<style
   type="text/css"
   id="style1">
	.st0{fill:#010101;}
	.st1{fill:#FFFFFF;}
	.st2{fill:#23BEF0;}
	.st3{fill:#01599D;}
	.st4{fill:#87C65B;}
	.st5{fill:#FDBC5A;}
	.st6{fill:#F58220;}
	.st7{fill:#EF3A38;}
	.st8{fill:#3A77B2;}
	.st9{fill:#823185;}
</style>
<rect
   style="fill:#23bef0;fill-opacity:1;stroke:#ffffff;stroke-width:0;stroke-linejoin:round"
   id="rect74-93"
   width="512"
   height="512"
   x="0"
   y="0"
   rx="0"
   ry="0" />










<g
   id="g33"
   transform="matrix(3.7209301,0,0,3.7209301,-145.8605,-1211.9069)">
	<g
   id="g28">
		
	</g>
	
	<g
   id="c133de6af664cd4f011a55de6b001b19">
		<g
   id="g29">
			<path
   class="st1"
   d="M 143.2,367.4 136.6,439 107.9,446.7 79.3,439 72.7,367.4 Z M 129.8,382 h -22 -22.3 l 1.1,8.7 h 21.3 1.2 l -1.2,0.5 -20.5,8.6 0.7,8.4 19.8,0.1 h 10.6 l -0.7,11.3 -10,2.8 v 0 h -0.1 l -9.6,-2.4 -0.6,-7 v 0 h -8.9 v 0 l 1.2,13.5 18.1,5.3 v 0 0 l 18,-5.3 2.3,-26.8 h -20.3 -0.1 0.1 l 21.1,-9 z"
   id="path29" />
		</g>
	</g>
	<g
   id="g32">
		<path
   class="st1"
   d="m 97.9,357.7 3.2,1 c -0.2,0.9 -0.6,1.6 -1,2.3 -0.5,0.6 -1,1 -1.7,1.4 -0.7,0.3 -1.6,0.5 -2.6,0.5 -1.3,0 -2.3,-0.2 -3.1,-0.6 -0.8,-0.4 -1.5,-1 -2.1,-2 -0.6,-0.9 -0.9,-2.1 -0.9,-3.6 0,-2 0.5,-3.5 1.6,-4.5 1,-1 2.5,-1.6 4.4,-1.6 1.5,0 2.7,0.3 3.5,0.9 0.9,0.6 1.5,1.5 1.9,2.8 l -3.2,0.7 c -0.1,-0.4 -0.2,-0.6 -0.4,-0.8 -0.2,-0.3 -0.5,-0.5 -0.7,-0.6 -0.3,-0.1 -0.6,-0.2 -1,-0.2 -0.8,0 -1.5,0.3 -1.9,1 -0.3,0.5 -0.5,1.3 -0.5,2.3 0,1.3 0.2,2.2 0.6,2.7 0.4,0.5 1,0.7 1.7,0.7 0.7,0 1.2,-0.2 1.6,-0.6 0.2,-0.4 0.4,-1 0.6,-1.8 z"
   id="path30" />
		<path
   class="st1"
   d="m 102.2,358.7 3.5,-0.2 c 0.1,0.6 0.2,1 0.5,1.3 0.4,0.5 0.9,0.7 1.6,0.7 0.5,0 0.9,-0.1 1.2,-0.4 0.3,-0.2 0.4,-0.5 0.4,-0.9 0,-0.3 -0.1,-0.6 -0.4,-0.8 -0.3,-0.2 -0.9,-0.5 -1.9,-0.7 -1.6,-0.4 -2.8,-0.8 -3.4,-1.4 -0.7,-0.6 -1,-1.3 -1,-2.3 0,-0.6 0.2,-1.2 0.5,-1.7 0.4,-0.6 0.9,-1 1.6,-1.3 0.7,-0.3 1.7,-0.5 2.9,-0.5 1.5,0 2.7,0.3 3.5,0.9 0.8,0.5 1.3,1.5 1.4,2.7 l -3.4,0.2 c -0.1,-0.5 -0.3,-0.9 -0.6,-1.2 -0.3,-0.2 -0.7,-0.4 -1.2,-0.4 -0.4,0 -0.7,0.1 -1,0.3 -0.3,0.2 -0.3,0.4 -0.3,0.7 0,0.2 0.1,0.4 0.3,0.5 0.2,0.2 0.6,0.3 1.2,0.4 1.6,0.3 2.8,0.7 3.4,1 0.7,0.4 1.2,0.8 1.5,1.3 0.3,0.5 0.5,1.1 0.5,1.8 0,0.8 -0.2,1.5 -0.6,2.1 -0.4,0.6 -1,1.1 -1.8,1.5 -0.7,0.3 -1.7,0.5 -2.8,0.5 -2,0 -3.4,-0.4 -4.2,-1.2 -0.8,-0.7 -1.3,-1.7 -1.4,-2.9 z"
   id="path31" />
		<path
   class="st1"
   d="m 114.1,358.7 3.5,-0.2 c 0.1,0.6 0.2,1 0.5,1.3 0.4,0.5 0.9,0.7 1.6,0.7 0.5,0 0.9,-0.1 1.2,-0.4 0.3,-0.2 0.4,-0.5 0.4,-0.9 0,-0.3 -0.1,-0.6 -0.4,-0.8 -0.3,-0.2 -0.9,-0.5 -1.9,-0.7 -1.6,-0.4 -2.8,-0.8 -3.4,-1.4 -0.7,-0.6 -1,-1.3 -1,-2.3 0,-0.6 0.2,-1.2 0.5,-1.7 0.4,-0.6 0.9,-1 1.6,-1.3 0.7,-0.3 1.7,-0.5 2.9,-0.5 1.5,0 2.7,0.3 3.5,0.9 0.8,0.5 1.3,1.5 1.4,2.7 l -3.4,0.2 c -0.1,-0.5 -0.3,-0.9 -0.6,-1.2 -0.3,-0.2 -0.7,-0.4 -1.2,-0.4 -0.4,0 -0.7,0.1 -1,0.3 -0.2,0.2 -0.3,0.4 -0.3,0.7 0,0.2 0.1,0.4 0.3,0.5 0.2,0.2 0.6,0.3 1.2,0.4 1.6,0.3 2.8,0.7 3.4,1 0.7,0.4 1.2,0.8 1.5,1.3 0.3,0.5 0.5,1.1 0.5,1.8 0,0.8 -0.2,1.5 -0.6,2.1 -0.4,0.6 -1,1.1 -1.8,1.5 -0.7,0.3 -1.7,0.5 -2.8,0.5 -2,0 -3.4,-0.4 -4.2,-1.2 -0.8,-0.7 -1.3,-1.7 -1.4,-2.9 z"
   id="path32" />
	</g>
</g>



<style
   type="text/css"
   id="style1-4">
	.st0{fill:#000000;}
</style></svg>
