<?xml version="1.0" encoding="UTF-8" standalone="no"?>
<!-- Generator: Adobe Illustrator 25.3.0, SVG Export Plug-In . SVG Version: 6.00 Build 0)  -->

<svg
   version="1.1"
   id="Layer_1"
   x="0px"
   y="0px"
   viewBox="0 0 512 512"
   xml:space="preserve"
   width="512"
   height="512"
   xmlns="http://www.w3.org/2000/svg"
   xmlns:svg="http://www.w3.org/2000/svg"><defs
   id="defs42" />
<style
   type="text/css"
   id="style1">
	.st0{fill:#010101;}
	.st1{fill:#FFFFFF;}
	.st2{fill:#23BEF0;}
	.st3{fill:#01599D;}
	.st4{fill:#87C65B;}
	.st5{fill:#FDBC5A;}
	.st6{fill:#F58220;}
	.st7{fill:#EF3A38;}
	.st8{fill:#3A77B2;}
	.st9{fill:#823185;}
</style>
<rect
   style="fill:#f58220;fill-opacity:1;stroke:#ffffff;stroke-width:0;stroke-linejoin:round"
   id="rect74-4"
   width="512"
   height="512"
   x="0"
   y="0"
   rx="0"
   ry="0" />









<g
   id="g27"
   transform="matrix(3.72093,0,0,3.72093,-145.8604,-1789.3953)">
	
	
	<g
   id="g26">
		<path
   class="st1"
   d="m 160.6,544.9 -47.7,-47.7 c -1.3,-1.3 -3,-2.1 -5,-2.1 -2,0 -3.7,0.8 -5,2.1 v 0 l -9.9,9.8 12.6,12.6 c 0.8,-0.3 1.7,-0.4 2.7,-0.4 4.6,0 8.4,3.7 8.4,8.4 0,1 -0.2,1.9 -0.5,2.8 v -0.1 l 12.1,12.1 c 0.8,-0.3 1.7,-0.5 2.7,-0.5 4.6,0 8.4,3.7 8.4,8.4 0,4.7 -3.7,8.4 -8.4,8.4 -4.6,0 -8.4,-3.7 -8.4,-8.4 0,-1.1 0.2,-2.2 0.6,-3.2 v 0.1 L 112,535.8 v 29.7 c 2.8,1.4 4.6,4.2 4.6,7.5 0,4.6 -3.7,8.4 -8.4,8.4 -4.7,0 -8.4,-3.7 -8.4,-8.4 0,-2.3 0.9,-4.4 2.4,-5.9 v 0 c 0.8,-0.8 1.7,-1.4 2.7,-1.8 h 0.1 v -29.9 c -3.1,-1.3 -5.2,-4.3 -5.2,-7.8 0,-1.2 0.2,-2.3 0.7,-3.3 v 0.1 L 88.2,512 55.5,544.7 c -1.3,1.3 -2,3.1 -2,5 0,2 0.8,3.7 2.1,5 l 47.7,47.7 c 1.3,1.3 3,2.1 5,2.1 2,0 3.7,-0.8 5,-2.1 l 47.5,-47.5 c 1.3,-1.3 2.1,-3 2.1,-5 -0.2,-2 -1,-3.8 -2.3,-5 z"
   id="path26" />
	</g>
</g>




<style
   type="text/css"
   id="style1-4">
	.st0{fill:#000000;}
</style></svg>
