<?xml version="1.0" encoding="UTF-8" standalone="no"?>
<!-- Generator: Adobe Illustrator 25.3.0, SVG Export Plug-In . SVG Version: 6.00 Build 0)  -->

<svg
   version="1.1"
   id="Layer_1"
   x="0px"
   y="0px"
   viewBox="0 0 512 512"
   xml:space="preserve"
   width="512"
   height="512"
   xmlns="http://www.w3.org/2000/svg"
   xmlns:svg="http://www.w3.org/2000/svg"><defs
   id="defs42" />
<style
   type="text/css"
   id="style1">
	.st0{fill:#010101;}
	.st1{fill:#FFFFFF;}
	.st2{fill:#23BEF0;}
	.st3{fill:#01599D;}
	.st4{fill:#87C65B;}
	.st5{fill:#FDBC5A;}
	.st6{fill:#F58220;}
	.st7{fill:#EF3A38;}
	.st8{fill:#3A77B2;}
	.st9{fill:#823185;}
</style>
<rect
   style="fill:#ef3a38;fill-opacity:1;stroke:#ffffff;stroke-width:0;stroke-linejoin:round"
   id="rect74-77"
   width="512"
   height="512"
   x="0"
   y="0"
   rx="0"
   ry="0" />







<g
   id="g23"
   transform="matrix(3.7209301,0,0,3.7209301,-891.5348,-1211.9069)">
	
	
	<g
   id="c133de6af664cd4f011a55de6b000d0b">
		<g
   id="g22">
			<path
   class="st1"
   d="m 277.8,345 h 4.8 v 4.7 H 287 V 345 h 4.8 v 14.2 H 287 v -4.8 h -4.4 v 4.8 h -4.8 z m 20.2,4.7 h -4.2 V 345 h 13.1 v 4.7 h -4.2 v 9.5 H 298 Z m 11,-4.7 h 5 l 3.1,5 3.1,-5 h 5 v 14.2 h -4.8 v -7.1 l -3.3,5.1 H 317 l -3.3,-5.1 v 7.1 H 309 Z m 18.4,0 h 4.8 v 9.5 h 6.7 v 4.7 h -11.5 z m -56.6,20.8 6.8,76.4 30.6,8.5 30.7,-8.5 6.8,-76.4 z m 60.7,18.1 -0.4,4.8 -0.2,2.1 v 0 h -22.6 v 0 H 295 l 0.9,9.6 h 12.4 v 0 h 19.2 2.5 l -0.2,2.5 -2.2,24.7 -0.1,1.6 -19.2,5.3 v 0 h -0.1 l -19.2,-5.3 -1.3,-14.7 h 4.3 5.1 l 0.7,7.5 10.4,2.8 v 0 0 l 10.5,-2.8 1.1,-12.2 h -11.5 v 0 h -21 l -2.3,-25.9 -0.2,-2.5 h 23.5 v 0 h 23.5 z"
   id="path22" />
		</g>
	</g>
</g>






<style
   type="text/css"
   id="style1-4">
	.st0{fill:#000000;}
</style></svg>
