<?xml version="1.0" encoding="UTF-8" standalone="no"?>
<!-- Generator: Adobe Illustrator 25.3.0, SVG Export Plug-In . SVG Version: 6.00 Build 0)  -->

<svg
   version="1.1"
   id="Layer_1"
   x="0px"
   y="0px"
   viewBox="0 0 512 512"
   xml:space="preserve"
   width="512"
   height="512"
   xmlns="http://www.w3.org/2000/svg"
   xmlns:svg="http://www.w3.org/2000/svg"><defs
   id="defs42" />
<style
   type="text/css"
   id="style1">
	.st0{fill:#010101;}
	.st1{fill:#FFFFFF;}
	.st2{fill:#23BEF0;}
	.st3{fill:#01599D;}
	.st4{fill:#87C65B;}
	.st5{fill:#FDBC5A;}
	.st6{fill:#F58220;}
	.st7{fill:#EF3A38;}
	.st8{fill:#3A77B2;}
	.st9{fill:#823185;}
</style>
<rect
   style="fill:#01599d;fill-opacity:1;stroke:#ffffff;stroke-width:0;stroke-linejoin:round"
   id="rect74-25"
   width="512"
   height="512"
   x="0"
   y="0"
   rx="0"
   ry="0" />



<g
   id="g13"
   transform="matrix(3.7209301,0,0,3.7209301,-1624.1859,-1211.9069)">
	
	
	<g
   id="Page-1">
		<g
   id="Dribbble-Light-Preview"
   transform="translate(-340,-7599)">
			<g
   id="icons"
   transform="translate(56,160)">
				<path
   id="python-_x5B__x23_127_x5D_"
   class="st1"
   d="m 802.2,7872.4 c -2.2,0 -4,-1.8 -4,-4 0,-2.2 1.8,-4 4,-4 2.2,0 4,1.8 4,4 0.1,2.2 -1.8,4 -4,4 m -12.3,7.1 c 23.4,0 21.9,-10.2 21.9,-10.2 v -10.6 h -22.3 v -3.2 h 31.2 c 0,0 15,1.7 15,-22 0,-23.7 -13.1,-22.9 -13.1,-22.9 h -7.8 v 11 c 0,0 0.4,13.1 -12.8,13.1 h -22.1 c 0,0 -12.4,-0.2 -12.4,12.1 v 20.3 c -0.1,0.1 -2,12.4 22.4,12.4 m -13,-85.1 c 2.2,0 4,1.8 4,4 0,2.2 -1.8,4 -4,4 -2.2,0 -4,-1.8 -4,-4 0,-2.2 1.8,-4 4,-4 m 12.4,-7.1 c -23.4,0 -21.9,10.2 -21.9,10.2 v 10.6 h 22.3 v 3.2 h -31.2 c 0,0 -15,-1.7 -15,22 0,23.7 13.1,22.9 13.1,22.9 h 7.8 v -11 c 0,0 -0.4,-13.1 12.9,-13.1 h 22.1 c 0,0 12.4,0.2 12.4,-12.1 v -20.3 c 0,-0.1 1.9,-12.4 -22.5,-12.4" />
			</g>
		</g>
	</g>
</g>










<style
   type="text/css"
   id="style1-4">
	.st0{fill:#000000;}
</style></svg>
