<?xml version="1.0" encoding="UTF-8" standalone="no"?>
<!-- Generator: Adobe Illustrator 25.3.0, SVG Export Plug-In . SVG Version: 6.00 Build 0)  -->

<svg
   version="1.1"
   id="Layer_1"
   x="0px"
   y="0px"
   viewBox="0 0 512 512"
   xml:space="preserve"
   width="512"
   height="512"
   xmlns="http://www.w3.org/2000/svg"
   xmlns:svg="http://www.w3.org/2000/svg"><defs
   id="defs42" />
<style
   type="text/css"
   id="style1">
	.st0{fill:#010101;}
	.st1{fill:#FFFFFF;}
	.st2{fill:#23BEF0;}
	.st3{fill:#01599D;}
	.st4{fill:#87C65B;}
	.st5{fill:#FDBC5A;}
	.st6{fill:#F58220;}
	.st7{fill:#EF3A38;}
	.st8{fill:#3A77B2;}
	.st9{fill:#823185;}
</style>
<rect
   style="fill:#23bef0;fill-opacity:1;stroke:#ffffff;stroke-width:0;stroke-linejoin:round"
   id="rect74-3"
   width="512"
   height="512"
   x="0"
   y="0"
   rx="0"
   ry="0" />


<g
   id="g12"
   transform="matrix(3.7209301,0,0,3.7209301,-891.5348,-2374.6976)">
	<g
   id="g10">
		
	</g>
	
	<g
   id="g11">
		<path
   class="st1"
   d="m 302.7,727.7 c 1.8,0.1 3.7,0.1 5.6,0.1 1.9,0 3.8,0 5.7,-0.1 -1.9,2.4 -3.7,4.5 -5.7,6.6 v 0 c -2,-2 -3.8,-4.2 -5.6,-6.4 z m -19.1,-2.6 c 3.6,0.9 8.1,1.7 12.6,2.2 h 0.4 c 2.8,3.8 5.6,7.2 8.6,10.3 v 0 c -4.4,4.9 -10.3,8.4 -17,9.6 H 288 v 0 c -0.8,0 -1.6,-0.2 -2.3,-0.6 v 0 c -2.8,-1.6 -4,-7.7 -3.1,-15.5 0.2,-2 0.6,-4 1,-6 z m 49.6,-0.1 c 0.4,1.6 0.8,3.6 1,5.7 v 0.3 c 1,7.8 -0.2,13.9 -3,15.5 -0.6,0.3 -1.3,0.5 -2.1,0.5 -0.1,0 -0.2,0 -0.2,0 v 0 c -6.9,-1.3 -12.8,-4.7 -17.2,-9.5 v 0 c 2.9,-3.1 5.7,-6.4 8.3,-9.9 l 0.2,-0.3 c 5,-0.5 9.4,-1.3 13.7,-2.4 z m -45.6,-12.5 c 0.8,1.6 1.7,3.3 2.7,4.9 1,1.6 2,3.2 2.9,4.8 -2.9,-0.4 -5.7,-1 -8.4,-1.6 0.7,-2.6 1.7,-5.4 2.8,-8.1 z m 41.6,-0.1 c 1.1,2.8 2.1,5.5 2.8,8.2 -2.7,0.7 -5.5,1.2 -8.4,1.6 1,-1.6 2,-3.2 2.9,-4.8 1,-1.7 1.9,-3.3 2.7,-5 z m -48.9,-17.9 c 1.5,5 3,9.1 4.9,13.1 L 285,707 c -1.6,3.4 -3.1,7.5 -4.4,11.7 l -0.2,0.7 c -2.4,-0.7 -4.3,-1.4 -6.1,-2.3 l 0.4,0.1 c -7.3,-3.1 -11.9,-7.1 -11.9,-10.4 0,-3.2 4.7,-7.3 11.9,-10.4 1.7,-0.6 3.6,-1.3 5.6,-1.9 z m 56.1,0 c 2,0.6 4,1.3 5.7,2.1 7.3,3.1 11.9,7.1 11.9,10.4 0,3.2 -4.7,7.3 -12,10.4 -1.8,0.7 -3.7,1.4 -5.7,2.1 -1.5,-5 -3.1,-9.1 -4.9,-13.1 l 0.2,0.6 c 1.6,-3.4 3.1,-7.5 4.4,-11.7 z m -12.8,-2.8 c 2.9,0.4 5.7,1 8.4,1.6 -0.7,2.6 -1.7,5.4 -2.8,8.1 -0.8,-1.6 -1.7,-3.3 -2.7,-4.9 -0.9,-1.7 -1.9,-3.3 -2.9,-4.8 z m -30.4,0 c -1,1.6 -2,3.2 -2.9,4.9 -0.9,1.6 -1.8,3.3 -2.7,4.9 -1.1,-2.8 -2.1,-5.5 -2.8,-8.2 2.6,-0.6 5.4,-1.2 8.4,-1.6 z m 15.2,-1.1 c 3.1,0 6.2,0.1 9.2,0.4 1.7,2.4 3.4,5 5,7.8 1.6,2.7 3,5.4 4.3,8.1 -1.3,2.8 -2.7,5.5 -4.2,8.2 -1.6,2.8 -3.2,5.4 -5,7.8 -3.1,0.3 -6.1,0.4 -9.3,0.4 -3.1,0 -6.2,-0.1 -9.2,-0.4 -1.7,-2.4 -3.4,-5 -5,-7.8 -1.6,-2.7 -3,-5.4 -4.3,-8.1 1.3,-2.8 2.7,-5.5 4.2,-8.2 1.6,-2.8 3.2,-5.4 5,-7.8 3.1,-0.3 6.2,-0.4 9.3,-0.4 z m -0.1,-11 c 2,2 3.8,4.2 5.6,6.4 l 0.1,0.2 c -1.8,-0.1 -3.7,-0.1 -5.6,-0.1 -1.9,0 -3.8,0 -5.7,0.1 1.9,-2.5 3.7,-4.6 5.6,-6.6 z m -20.4,-12.8 c 6.9,1.3 12.8,4.7 17.2,9.5 v 0 c -2.9,3.1 -5.7,6.4 -8.3,10 l -0.2,0.3 c -5,0.5 -9.4,1.3 -13.7,2.4 l 0.7,-0.1 c -0.5,-2.1 -0.8,-4 -1.1,-5.9 -1,-7.8 0.2,-13.9 3,-15.5 0.7,-0.4 1.5,-0.6 2.4,-0.7 z m 40.9,-0.1 v 0 c 0.1,0 0.1,0 0.1,0 0.8,0 1.6,0.2 2.2,0.5 v 0 c 2.8,1.6 4,7.7 3.1,15.5 -0.2,1.9 -0.6,4 -1,6 -3.6,-0.9 -8.1,-1.7 -12.6,-2.2 h -0.4 c -2.8,-3.8 -5.6,-7.2 -8.6,-10.3 v 0 c 4.4,-4.9 10.3,-8.3 17,-9.6 z m 0,-4.5 c -8.2,1.2 -15.3,5.2 -20.4,10.9 v 0.1 c -5.2,-5.7 -12.3,-9.7 -20.3,-10.9 h -0.2 c -0.1,0 -0.1,0 -0.1,0 -1.6,0 -3.2,0.4 -4.5,1.2 h 0.1 c -5.7,3.3 -7,13.7 -4.1,26.6 -12.8,3.9 -21,10.2 -21,16.9 0,6.7 8.3,13 21.1,16.9 -2.9,13 -1.6,23.4 4.2,26.7 1.3,0.7 2.8,1.2 4.4,1.2 0.1,0 0.1,0 0.2,0 v 0 c 8.2,-1.2 15.3,-5.2 20.4,-11 v 0 c 5.2,5.7 12.3,9.7 20.3,10.9 h 0.2 c 0.1,0 0.1,0 0.2,0 1.6,0 3.2,-0.4 4.5,-1.2 h -0.1 c 5.7,-3.3 7,-13.7 4.1,-26.6 12.7,-3.9 21,-10.2 21,-16.9 0,-6.7 -8.3,-13 -21.1,-16.9 2.9,-13 1.6,-23.4 -4.2,-26.7 -1.3,-0.7 -2.8,-1.2 -4.5,-1.2 -0.1,0 -0.2,0 -0.2,0 z m -11.1,44.7 c 0,5.2 -4.2,9.4 -9.4,9.4 -5.2,0 -9.4,-4.2 -9.4,-9.4 0,-5.2 4.2,-9.4 9.4,-9.4 2.6,0 4.9,1 6.6,2.8 v 0 c 1.8,1.7 2.8,4 2.8,6.6 z"
   id="path11" />
	</g>
</g>











<style
   type="text/css"
   id="style1-4">
	.st0{fill:#000000;}
</style></svg>
