<?xml version="1.0" encoding="UTF-8" standalone="no"?>
<!-- Generator: Adobe Illustrator 25.3.0, SVG Export Plug-In . SVG Version: 6.00 Build 0)  -->

<svg
   version="1.1"
   id="Layer_1"
   x="0px"
   y="0px"
   viewBox="0 0 512 512"
   xml:space="preserve"
   width="512"
   height="512"
   xmlns="http://www.w3.org/2000/svg"
   xmlns:svg="http://www.w3.org/2000/svg"><defs
   id="defs42" />
<style
   type="text/css"
   id="style1">
	.st0{fill:#010101;}
	.st1{fill:#FFFFFF;}
	.st2{fill:#23BEF0;}
	.st3{fill:#01599D;}
	.st4{fill:#87C65B;}
	.st5{fill:#FDBC5A;}
	.st6{fill:#F58220;}
	.st7{fill:#EF3A38;}
	.st8{fill:#3A77B2;}
	.st9{fill:#823185;}
</style>
<rect
   style="fill:#3a77b2;fill-opacity:1;stroke:#ffffff;stroke-width:0;stroke-linejoin:round"
   id="rect74-06"
   width="512"
   height="512"
   x="0"
   y="0"
   rx="0"
   ry="0" />








<g
   id="g25"
   transform="matrix(3.7209301,0,0,3.7209301,-145.8604,-2374.6976)">
	
	
	<g
   id="g24">
		<path
   class="st1"
   d="m 98.9,665.2 c -4,0.9 -8,2.2 -11.8,4 0.1,3.3 0.3,6.5 0.7,9.7 -1.5,0.9 -3,1.7 -4.3,2.8 -1.4,1 -2.8,2.1 -4,3.3 -2.5,-1.6 -5.1,-3.2 -7.9,-4.6 -2.9,3.2 -5.7,6.6 -7.9,10.4 1.7,2.8 3.5,5.3 5.4,7.7 h 0.1 V 722 c 0.1,0 0.1,0 0.1,0 l 14.4,1.4 c 0.7,0.1 1.3,0.7 1.4,1.4 l 0.4,6.3 12.5,0.9 0.9,-5.9 c 0.1,-0.8 0.8,-1.3 1.5,-1.3 h 15.2 c 0.8,0 1.4,0.5 1.5,1.3 l 0.9,5.9 12.5,-0.9 0.4,-6.3 c 0.1,-0.8 0.6,-1.4 1.4,-1.4 l 14.4,-1.4 c 0.1,0 0.1,0 0.1,0 v -23.4 h 0.1 c 1.9,-2.4 3.7,-5 5.3,-7.7 -2.2,-3.8 -5,-7.2 -7.9,-10.4 -2.7,1.4 -5.4,2.9 -7.9,4.6 -1.3,-1.2 -2.6,-2.3 -4,-3.3 -1.4,-1.1 -2.9,-1.9 -4.3,-2.8 0.4,-3.2 0.7,-6.4 0.7,-9.7 -3.7,-1.9 -7.8,-3.1 -11.8,-4 -1.6,2.7 -3.1,5.7 -4.4,8.5 -1.5,-0.2 -3.1,-0.4 -4.6,-0.4 h -0.1 c -1.5,0 -3.1,0.1 -4.6,0.4 -1.3,-3 -2.8,-5.9 -4.4,-8.6 z m -11.4,34.3 c 4.8,0 8.7,3.9 8.7,8.7 0,4.8 -3.9,8.7 -8.7,8.7 -4.8,0 -8.7,-3.9 -8.7,-8.7 0.1,-4.8 3.9,-8.7 8.7,-8.7 z m 40.7,0 c 4.8,0 8.7,3.9 8.7,8.7 0,4.8 -3.9,8.7 -8.7,8.7 -4.8,0 -8.7,-3.9 -8.7,-8.7 0.1,-4.8 4,-8.7 8.7,-8.7 z m -39.9,3.4 c -3.2,0 -5.7,2.6 -5.7,5.7 0,3.2 2.6,5.7 5.7,5.7 3.2,0 5.7,-2.6 5.7,-5.7 0.1,-3.1 -2.5,-5.7 -5.7,-5.7 z m 39.1,0 c -3.2,0 -5.7,2.6 -5.7,5.7 0,3.2 2.6,5.7 5.7,5.7 3.2,0 5.7,-2.6 5.7,-5.7 0,-3.1 -2.5,-5.7 -5.7,-5.7 z m -19.5,1.7 c 1.5,0 2.8,1.1 2.8,2.5 v 8 c 0,1.4 -1.3,2.5 -2.8,2.5 -1.5,0 -2.8,-1.1 -2.8,-2.5 v -8 c 0,-1.4 1.2,-2.5 2.8,-2.5 z M 69,725.1 c 0,1.4 0,2.9 0,3.2 0,13.6 17.3,20.2 38.8,20.3 h 0.1 c 21.5,-0.1 38.8,-6.6 38.8,-20.3 0,-0.3 0,-1.8 0,-3.2 l -12.9,1.3 -0.4,6.4 c -0.1,0.8 -0.7,1.4 -1.4,1.4 l -15.4,1.1 c -0.7,0 -1.4,-0.5 -1.5,-1.3 l -0.9,-6 h -12.5 l -0.9,6 c -0.1,0.8 -0.8,1.4 -1.6,1.3 l -15.3,-1.1 c -0.8,-0.1 -1.4,-0.7 -1.4,-1.4 l -0.4,-6.4 z"
   id="path24" />
	</g>
</g>





<style
   type="text/css"
   id="style1-4">
	.st0{fill:#000000;}
</style></svg>
