<?xml version="1.0" encoding="UTF-8" standalone="no"?>
<!-- Generator: Adobe Illustrator 25.3.0, SVG Export Plug-In . SVG Version: 6.00 Build 0)  -->

<svg
   version="1.1"
   id="Layer_1"
   x="0px"
   y="0px"
   viewBox="0 0 512 512"
   xml:space="preserve"
   width="512"
   height="512"
   xmlns="http://www.w3.org/2000/svg"
   xmlns:svg="http://www.w3.org/2000/svg"><defs
   id="defs42" />
<style
   type="text/css"
   id="style1">
	.st0{fill:#010101;}
	.st1{fill:#FFFFFF;}
	.st2{fill:#23BEF0;}
	.st3{fill:#01599D;}
	.st4{fill:#87C65B;}
	.st5{fill:#FDBC5A;}
	.st6{fill:#F58220;}
	.st7{fill:#EF3A38;}
	.st8{fill:#3A77B2;}
	.st9{fill:#823185;}
</style>
<rect
   style="fill:#87c65b;fill-opacity:1;stroke:#ffffff;stroke-width:0;stroke-linejoin:round"
   id="rect74-56"
   width="512"
   height="512"
   x="0"
   y="4.4853773e-06"
   rx="0"
   ry="0" />




<g
   id="g17"
   transform="matrix(3.7209301,0,0,3.7209301,-891.5348,-641.86044)">
	
	
	<g
   id="Layer_2_1_">
		<g
   id="Q3_icons">
			<g
   id="g16">
				<g
   id="g14">
					<path
   class="st1"
   d="m 348.8,214.4 -36.7,-20.8 c -2.4,-1.1 -5.1,-1.1 -7.5,0 L 268,214.4 c -2.3,1.3 -3.7,3.8 -3.8,6.4 v 41.1 c 0,2.6 1.5,5.1 3.8,6.4 l 9.7,5.5 c 2.5,1.5 5.4,2.3 8.4,2.2 6.8,0 10.8,-4.2 10.8,-11.3 v -40.4 c 0,-0.6 -0.5,-1.1 -1.1,-1.1 h -4.6 c -0.6,0 -1.1,0.5 -1.1,1.1 v 40.4 c 0,3.3 -3.3,6.4 -8.6,3.8 l -10.1,-5.7 c -0.3,-0.2 -0.4,-0.5 -0.4,-0.9 v -41.1 c 0,-0.4 0.2,-0.8 0.4,-1.1 l 36.4,-20.5 h 1.3 l 36.4,20.5 c 0.3,0.3 0.4,0.7 0.4,1.1 v 41.1 c 0,0.4 -0.2,0.7 -0.4,0.9 L 309,283.3 c -0.4,0.2 -0.9,0.2 -1.3,0 l -9.3,-5.3 c -0.2,-0.2 -0.6,-0.2 -0.9,0 l -5.5,2.4 c -0.7,0.2 -1.5,0.4 0.2,1.5 l 12.4,6.8 c 2.3,1.5 5.2,1.5 7.5,0 l 36.6,-20.5 c 2.3,-1.3 3.7,-3.8 3.8,-6.4 v -41.1 c 0,-2.6 -1.4,-5 -3.7,-6.3 z"
   id="path14" />
				</g>
				<g
   id="g15">
					<path
   class="st1"
   d="m 319.6,255.2 c -9.7,0 -11.7,-2.2 -12.6,-6.8 0,-0.5 -0.4,-0.9 -0.9,-0.9 h -4.9 c -0.5,0 -0.9,0.4 -0.9,0.9 0,6 3.3,13.3 19.2,13.3 11.5,0 18.1,-4.4 18.1,-12.2 0,-7.7 -5.3,-9.9 -16.6,-11.3 -11.3,-1.3 -12.4,-2.2 -12.4,-4.9 0,-2.6 0.9,-4.9 9.3,-4.9 8.4,0 10.4,1.5 11.5,6.4 0.1,0.5 0.6,0.9 1.1,0.9 h 4.6 l 0.9,-0.4 c 0.2,-0.2 0.2,-0.4 0.2,-0.7 -0.7,-8.6 -6.6,-12.6 -18.3,-12.6 -11.7,0 -16.6,4.4 -16.6,11.5 0,7.1 6.2,9.9 16.1,11.1 9.9,1.2 13,2.6 13,5.1 0.3,2.5 -3,5.5 -10.8,5.5 z"
   id="path15" />
				</g>
			</g>
		</g>
	</g>
</g>









<style
   type="text/css"
   id="style1-4">
	.st0{fill:#000000;}
</style></svg>
