<?xml version="1.0" encoding="UTF-8" standalone="no"?>
<!-- Generator: Adobe Illustrator 25.3.0, SVG Export Plug-In . SVG Version: 6.00 Build 0)  -->

<svg
   version="1.1"
   id="Layer_1"
   x="0px"
   y="0px"
   viewBox="0 0 512 512"
   xml:space="preserve"
   width="512"
   height="512"
   xmlns="http://www.w3.org/2000/svg"
   xmlns:svg="http://www.w3.org/2000/svg"><defs
   id="defs42" />
<style
   type="text/css"
   id="style1">
	.st0{fill:#010101;}
	.st1{fill:#FFFFFF;}
	.st2{fill:#23BEF0;}
	.st3{fill:#01599D;}
	.st4{fill:#87C65B;}
	.st5{fill:#FDBC5A;}
	.st6{fill:#F58220;}
	.st7{fill:#EF3A38;}
	.st8{fill:#3A77B2;}
	.st9{fill:#823185;}
</style>
<rect
   style="fill:#23bef0;fill-opacity:1;stroke:#ffffff;stroke-width:0;stroke-linejoin:round"
   id="rect74-5"
   width="512"
   height="512"
   x="0"
   y="0"
   rx="0"
   ry="0" />

<g
   id="g9"
   transform="matrix(3.72093,0,0,3.72093,-891.5348,-1789.3953)">
	<g
   id="g7">
		
	</g>
	
	<g
   id="g8">
		<path
   class="st1"
   d="m 302.8,595.4 c -8.6,-0.6 -17.1,-2.8 -22.4,-5.7 -3,-1.7 -5.3,-3.7 -6.1,-5.5 l -0.5,-1.1 v -33.8 -33.8 l 0.4,-0.9 c 1.9,-3.8 7.8,-7.2 16.2,-9.3 2.8,-0.7 6.9,-1.4 10.3,-1.7 3.4,-0.4 12.4,-0.3 15.8,0.1 9,1.1 16.7,3.4 21.4,6.6 1.8,1.2 3.7,3.2 4.3,4.6 l 0.6,1.2 -0.1,33.7 -0.1,33.7 -0.4,0.9 c -0.2,0.5 -1,1.5 -1.6,2.1 -3.9,4.2 -12.4,7.3 -23.4,8.6 -2.3,0.3 -12.1,0.5 -14.4,0.3 z m 15.9,-28.9 c 0,-0.1 -1.3,-1.2 -2.9,-2.6 -1.5,-1.3 -2.9,-2.4 -2.9,-2.5 -0.1,-0.1 0.2,-0.3 0.6,-0.6 0.4,-0.2 1.2,-1 1.8,-1.6 1.7,-1.8 2.5,-3.9 2.5,-6.8 0,-2.8 -0.9,-5.1 -2.6,-6.8 -1.7,-1.7 -3.7,-2.5 -6.6,-2.5 -4.5,0 -7.9,2.6 -9,6.8 -0.4,1.5 -0.4,4.4 0,5.7 1,3.4 3.7,5.8 7,6.4 1.1,0.2 1.3,0.3 2.1,1.1 0.5,0.5 1.4,1.5 2.1,2.2 l 1.3,1.3 h 3.3 c 1.8,0 3.3,0 3.3,-0.1 z m -11.5,-9.4 c -0.8,-0.4 -1.1,-0.7 -1.6,-1.7 -0.4,-0.7 -0.4,-1.1 -0.4,-2.8 0,-1.7 0.1,-2.1 0.4,-2.9 0.6,-1.2 1.4,-1.8 2.7,-1.9 1.8,-0.1 2.8,0.7 3.4,2.9 0.7,2.6 -0.1,5.4 -1.7,6.3 -0.7,0.5 -2,0.5 -2.8,0.1 z m -14.8,4.8 c 3.5,-0.7 5.5,-2.7 5.5,-5.6 0,-2.6 -1.3,-4.1 -4.8,-5.7 -2,-0.9 -2.8,-1.5 -2.8,-2.1 0,-0.5 0.7,-1.2 1.5,-1.3 0.8,-0.1 2.9,0.2 4.1,0.7 l 1,0.4 v -2.3 -2.3 l -1.1,-0.2 c -0.7,-0.2 -2.2,-0.2 -3.9,-0.2 -2.4,0 -2.8,0.1 -3.7,0.4 -2.6,1 -3.9,2.8 -3.8,5.4 0,2.5 1.3,4 4.6,5.4 1.9,0.8 2.7,1.5 2.7,2.2 0,1.6 -2.6,1.8 -5.4,0.4 -0.8,-0.4 -1.4,-0.7 -1.5,-0.7 -0.1,0 -0.1,1 -0.1,2.4 0,2.4 0,2.4 0.4,2.6 1.7,0.6 5.4,0.9 7.3,0.5 z m 40,-2.2 v -2.1 h -3.2 -3.2 v -7.1 -7.2 h -2.8 -2.8 v 9.2 9.2 h 6 6 z m -19.5,-36.4 c 5.6,-0.4 9.7,-1.1 13.4,-2.3 3.7,-1.2 5.8,-2.7 6.3,-4.3 0.2,-0.6 0.2,-0.9 -0.1,-1.5 -1.2,-3.1 -7.7,-5.4 -17.7,-6.4 -4.3,-0.4 -12,-0.3 -16.1,0.3 -6.2,0.8 -11.2,2.4 -13.5,4.2 -4.5,3.6 0.2,7.5 11.4,9.4 5,0.6 11.2,0.9 16.3,0.6 z"
   id="path8" />
	</g>
</g>












<style
   type="text/css"
   id="style1-4">
	.st0{fill:#000000;}
</style></svg>
