<?xml version="1.0" encoding="UTF-8" standalone="no"?>
<!-- Generator: Adobe Illustrator 25.3.0, SVG Export Plug-In . SVG Version: 6.00 Build 0)  -->

<svg
   version="1.1"
   id="Layer_1"
   x="0px"
   y="0px"
   viewBox="0 0 512 512"
   xml:space="preserve"
   width="512"
   height="512"
   xmlns="http://www.w3.org/2000/svg"
   xmlns:svg="http://www.w3.org/2000/svg"><defs
   id="defs42" />
<style
   type="text/css"
   id="style1">
	.st0{fill:#010101;}
	.st1{fill:#FFFFFF;}
	.st2{fill:#23BEF0;}
	.st3{fill:#01599D;}
	.st4{fill:#87C65B;}
	.st5{fill:#FDBC5A;}
	.st6{fill:#F58220;}
	.st7{fill:#EF3A38;}
	.st8{fill:#3A77B2;}
	.st9{fill:#823185;}
</style>
<rect
   style="fill:#000000;fill-opacity:1;stroke:#ffffff;stroke-width:0;stroke-linejoin:round"
   id="rect74-1"
   width="512"
   height="512"
   x="0"
   y="0"
   rx="0"
   ry="0" /><g
   id="g3"
   transform="matrix(3.72093,0,0,3.72093,2809.6744,-1281.4883)">
	<circle
   class="st0"
   cx="-686.30005"
   cy="413.20001"
   r="68.800003"
   id="circle1" />
	
	<g
   id="g2"
   transform="translate(-1191.6,-293.79999)">
		<path
   class="st1"
   d="m 509.4,675.4 15.6,9 c 0.5,0.3 0.6,1.2 0,1.5 l -18.6,10.7 c -0.5,0.3 -1.2,0.3 -1.8,0 L 486,685.9 c -0.6,-0.3 -0.6,-1.2 0,-1.5 l 15.6,-9 v -17.7 l -39.9,23 v 46.1 L 477,718 v -18.1 c 0,-0.6 0.7,-1.1 1.3,-0.8 l 18.6,10.7 c 0.6,0.3 0.9,0.9 0.9,1.5 v 21.5 c 0,0.6 -0.7,1.1 -1.3,0.8 l -15.6,-9 -15.3,8.8 39.9,23 39.9,-23 -15.3,-8.8 -15.6,9 c -0.5,0.3 -1.3,-0.1 -1.3,-0.8 v -21.5 c 0,-0.6 0.4,-1.2 0.9,-1.5 l 18.6,-10.7 c 0.6,-0.3 1.3,0.1 1.3,0.8 v 18 l 15.3,8.8 v -46.1 l -39.9,-23 z"
   id="path2" />
	</g>
</g>














<style
   type="text/css"
   id="style1-4">
	.st0{fill:#000000;}
</style></svg>
