<?xml version="1.0" encoding="UTF-8" standalone="no"?>
<!-- Generator: Adobe Illustrator 25.3.0, SVG Export Plug-In . SVG Version: 6.00 Build 0)  -->

<svg
   version="1.1"
   id="Layer_1"
   x="0px"
   y="0px"
   viewBox="0 0 512 512"
   xml:space="preserve"
   width="512"
   height="512"
   xmlns="http://www.w3.org/2000/svg"
   xmlns:svg="http://www.w3.org/2000/svg"><defs
   id="defs42" />
<style
   type="text/css"
   id="style1">
	.st0{fill:#010101;}
	.st1{fill:#FFFFFF;}
	.st2{fill:#23BEF0;}
	.st3{fill:#01599D;}
	.st4{fill:#87C65B;}
	.st5{fill:#FDBC5A;}
	.st6{fill:#F58220;}
	.st7{fill:#EF3A38;}
	.st8{fill:#3A77B2;}
	.st9{fill:#823185;}
</style>
<rect
   style="fill:#01599d;fill-opacity:1;stroke:#ffffff;stroke-width:0;stroke-linejoin:round"
   id="rect74-6"
   width="512"
   height="512"
   x="0"
   y="-8.6768875e-07"
   rx="0"
   ry="0" />












<g
   id="g39"
   transform="matrix(3.7209301,0,0,3.7209301,-1624.1859,-71.813937)">
	
	
	<g
   id="g38">
		<path
   class="st1"
   d="m 504.8,139.8 c -28.5,0 -51.7,-23.2 -51.7,-51.7 0,-28.5 23.2,-51.7 51.7,-51.7 16.3,0 31.4,7.6 41.1,20.4 L 527,67.7 c -5.7,-6.2 -13.8,-9.8 -22.2,-9.8 -16.6,0 -30.2,13.5 -30.2,30.2 0,16.7 13.5,30.2 30.2,30.2 8.5,0 16.6,-3.6 22.2,-9.8 l 18.9,10.9 c -9.7,12.9 -24.8,20.4 -41.1,20.4 z"
   id="path38" />
	</g>
</g>

<style
   type="text/css"
   id="style1-4">
	.st0{fill:#000000;}
</style></svg>
