<?xml version="1.0" encoding="UTF-8" standalone="no"?>
<!-- Generator: Adobe Illustrator 25.3.0, SVG Export Plug-In . SVG Version: 6.00 Build 0)  -->

<svg
   version="1.1"
   id="Layer_1"
   x="0px"
   y="0px"
   viewBox="0 0 512 512"
   xml:space="preserve"
   width="512"
   height="512"
   xmlns="http://www.w3.org/2000/svg"
   xmlns:svg="http://www.w3.org/2000/svg"><defs
   id="defs42" />
<style
   type="text/css"
   id="style1">
	.st0{fill:#010101;}
	.st1{fill:#FFFFFF;}
	.st2{fill:#23BEF0;}
	.st3{fill:#01599D;}
	.st4{fill:#87C65B;}
	.st5{fill:#FDBC5A;}
	.st6{fill:#F58220;}
	.st7{fill:#EF3A38;}
	.st8{fill:#3A77B2;}
	.st9{fill:#823185;}
</style>
<rect
   style="fill:#f58220;fill-opacity:1;stroke:#ffffff;stroke-width:0;stroke-linejoin:round"
   id="rect74-9"
   width="512"
   height="512"
   x="0"
   y="0"
   rx="0"
   ry="0" />






<g
   id="g21"
   transform="matrix(3.72093,0,0,3.72093,-145.8604,-641.86042)">
	
	
	<g
   id="_x35_151e0c8492e5103c096af88a51e8d81">
		<g
   id="g20">
			<path
   class="st1"
   d="m 92.7,228.8 c -1,-2 -1.4,-4.3 -0.7,-6.4 0.7,-2.1 2.4,-3.8 4.1,-5.4 4.7,-4.3 10.5,-7.4 15,-11.7 2.5,-2.4 4.6,-5.2 5.4,-8.5 0.6,-2.4 0.3,-4.9 -0.2,-7.2 2.4,2.5 3.2,6.1 2.5,9.4 -0.7,3.6 -3,6.9 -5.6,9.6 -2.1,2.2 -4.5,4.2 -7,6.1 -2.9,2.1 -5.8,4.5 -7.6,7.5 -1.5,2.4 -1.9,5.4 -0.9,8.1 1.7,4.6 5.8,7.9 7.9,12.2 -2.4,-2 -4.8,-4 -7,-6.1 -2.2,-2.4 -4.4,-4.8 -5.9,-7.6 z m 13.2,-3.6 c -0.4,3.7 1.7,7.3 4.3,10 1.2,1.2 2.3,2.8 2.3,4.5 0.1,2.3 -1.4,4.5 -3.2,6 0.4,-0.1 0.7,-0.4 1.1,-0.6 2.8,-1.6 5.5,-3.7 6.8,-6.5 0.9,-1.9 0.7,-4.2 -0.5,-5.9 -1.4,-2.1 -3.2,-3.9 -4.3,-6.2 -0.6,-1.3 -0.8,-2.8 -0.3,-4.1 0.7,-1.8 2,-3.3 3.5,-4.6 4.1,-3.5 9,-6 13.7,-8.7 -5.9,1.5 -11.8,3.7 -16.8,7 -3.2,2.4 -6.1,5.4 -6.6,9.1 z m 28.3,17.7 c 2.8,0.1 5.6,2 6.1,4.6 0.5,2.2 -0.7,4.5 -2.2,6.1 -2.5,2.7 -5.9,4.7 -9.3,6.4 -0.3,0.2 -0.6,0.4 -0.9,0.7 4.5,-1 9,-2.6 12.7,-5.3 2,-1.5 3.8,-3.5 4.2,-6 0.4,-2.1 -0.6,-4.3 -2.3,-5.6 -2.1,-1.7 -5,-2.3 -7.7,-2 -1.6,0.2 -3.3,0.5 -4.4,1.7 1.2,-0.2 2.4,-0.7 3.8,-0.6 z m -56.1,6.8 c 3.4,0.8 6.9,1 10.3,1.3 3.1,0.2 6.2,0.2 9.3,0.2 8.1,-0.1 16.2,-0.6 24.1,-2.2 0.7,-0.2 1.6,-0.3 2.3,-0.7 1.3,-0.8 2.8,-1.4 4.2,-2 -6.4,0.9 -12.9,1.7 -19.4,2.1 -6.6,0.4 -13.2,0.6 -19.9,0.2 -1.9,-0.2 -3.8,-0.2 -5.6,-0.9 -0.4,-0.2 -1,-0.5 -0.8,-1 0.4,-0.6 1.2,-0.9 1.8,-1.3 2.8,-1.2 5.9,-1.9 9,-2.7 -5.2,-0.1 -10.4,1.1 -15.1,3 -1.1,0.5 -2.3,0.9 -3.1,1.6 -0.3,0.3 -0.3,0.9 0.1,1.2 0.7,0.6 1.8,0.9 2.8,1.2 z m 41.8,6.4 c -4.5,0.7 -9.1,1.4 -13.6,1.6 -5,0.3 -10,0.1 -15,-0.4 -1,-0.1 -1.9,-0.2 -2.8,-0.7 -0.4,-0.2 -0.9,-0.6 -0.9,-1.1 0.1,-0.8 0.8,-1.3 1.3,-1.9 -1.6,0.5 -3.2,1 -4.5,2 -0.6,0.4 -1.1,1 -1,1.7 0.2,0.8 1.1,1.3 1.9,1.7 1.9,0.9 4.1,1.3 6.2,1.6 5.3,0.8 10.7,0.8 16,0.5 5.6,-0.4 11.2,-1.2 16.7,-2.7 -1.5,-0.5 -3,-1.2 -4.3,-2.3 z m -28.4,8.1 c -1.5,0.4 -2.9,0.8 -4.1,1.7 -0.6,0.4 -1.1,1.2 -0.8,1.8 0.4,0.9 1.3,1.4 2.1,1.8 2.2,1.1 4.7,1.6 7.2,2 5.6,0.8 11.3,0.7 16.8,-0.2 3.3,-0.6 6.6,-1.4 9.6,-2.6 -2,-0.7 -3.9,-1.6 -5.8,-2.6 -3.2,0.5 -6.5,1 -9.8,1.2 -4.4,0.3 -8.8,0 -13.1,-0.5 -1,-0.2 -2.3,-0.3 -3,-1.1 -0.4,-0.6 0.5,-1.1 0.9,-1.5 z m 35.4,15.2 c 3.6,-0.7 7.3,-1.5 10.6,-3 1,-0.5 2.3,-1.1 2.6,-2.3 0.2,-1.1 -1.1,-1.6 -2,-2.1 0.6,0.6 0.9,1.4 0.4,2 -0.9,1.1 -2.4,1.5 -3.8,2 -4.3,1.1 -8.7,1.5 -13.1,2 -11.7,1 -23.5,1.2 -35.2,0.3 -3.9,-0.4 -7.9,-0.8 -11.7,-2 -0.6,-0.2 -1.5,-0.5 -1.5,-1.2 0.2,-0.6 0.9,-1 1.5,-1.3 2.7,-1.2 5.7,-1.9 8.7,-2.1 -0.9,-0.5 -1.9,-0.5 -2.9,-0.5 -2.5,0.1 -4.9,0.7 -7.3,1.4 -2,0.7 -4.1,1.4 -5.8,2.8 -0.6,0.5 -1.2,1.5 -0.6,2.2 1,1 2.6,1.3 4.1,1.6 7.9,1.2 16,2 24.1,2.2 10.6,0.3 21.4,-0.2 31.9,-2 z m 10.6,1.2 c -4.9,1.4 -9.9,2.2 -14.9,2.8 -8.7,1 -17.4,1.3 -26.1,1 -5.3,-0.2 -10.6,-0.5 -15.8,-1.3 1.2,0.7 2.7,1 4.1,1.3 5.9,1.1 11.9,1.3 17.8,1.5 8.8,0.1 17.5,-0.2 26.2,-1.4 4.1,-0.7 8.2,-1.5 11.9,-3.2 1.9,-0.9 3.9,-2.3 4.2,-4.4 -2,2 -4.8,2.9 -7.4,3.7 z"
   id="path20" />
		</g>
	</g>
</g>







<style
   type="text/css"
   id="style1-4">
	.st0{fill:#000000;}
</style></svg>
