<?xml version="1.0" encoding="UTF-8" standalone="no"?>
<!-- Generator: Adobe Illustrator 25.3.0, SVG Export Plug-In . SVG Version: 6.00 Build 0)  -->

<svg
   version="1.1"
   id="Layer_1"
   x="0px"
   y="0px"
   viewBox="0 0 512 512"
   xml:space="preserve"
   width="512"
   height="512"
   xmlns="http://www.w3.org/2000/svg"
   xmlns:svg="http://www.w3.org/2000/svg"><defs
   id="defs42" />
<style
   type="text/css"
   id="style1">
	.st0{fill:#010101;}
	.st1{fill:#FFFFFF;}
	.st2{fill:#23BEF0;}
	.st3{fill:#01599D;}
	.st4{fill:#87C65B;}
	.st5{fill:#FDBC5A;}
	.st6{fill:#F58220;}
	.st7{fill:#EF3A38;}
	.st8{fill:#3A77B2;}
	.st9{fill:#823185;}
</style>
<rect
   style="fill:#fdbc5a;fill-opacity:1;stroke:#ffffff;stroke-width:0;stroke-linejoin:round"
   id="rect74-53"
   width="512"
   height="512"
   x="0"
   y="2.2499999e-06"
   rx="0"
   ry="0" />





<g
   id="g18"
   transform="matrix(3.7209301,0,0,3.7209301,-1624.1859,-641.86044)">
	
	
	<g
   id="Page-1_1_">
		<g
   id="Dribbble-Light-Preview_1_"
   transform="translate(-420,-7479)">
			<g
   id="icons_1_"
   transform="translate(56,160)">
				<g
   id="javascript-_x5B__x23_155_x5D_">
					<path
   class="st1"
   d="m 890.7,7593.9 c -7,0 -11.5,-3.3 -13.7,-7.7 v 0 l 6.1,-3.5 c 1.6,2.6 3.7,4.6 7.4,4.6 3.1,0 5.1,-1.6 5.1,-3.7 0,-3.2 -4.3,-4.5 -7.4,-5.8 -5.4,-2.3 -9,-5.2 -9,-11.3 0,-5.6 4.3,-9.9 11,-9.9 4.8,0 8.2,1.7 10.7,6 l -5.9,3.8 c -1.3,-2.3 -2.7,-3.2 -4.8,-3.2 -2.2,0 -3.6,1.4 -3.6,3.2 0,2.3 1.4,3.2 4.6,4.6 6.8,2.9 11.9,5.2 11.9,12.6 0,6.6 -5.3,10.3 -12.4,10.3 z m -17.3,-11.3 c 0,7.8 -4.8,11.9 -11.5,11.9 -6,0 -9.6,-2.3 -11.4,-6.3 h -0.1 v 0 0 l 6.1,-4.3 c 1.2,2.1 2.3,3.6 4.8,3.6 2.5,0 4,-1.3 4,-5 v -26.3 h 8 z m -44.1,17.6 h 80.1 v -80.1 h -80.1 z"
   id="path18" />
				</g>
			</g>
		</g>
	</g>
</g>








<style
   type="text/css"
   id="style1-4">
	.st0{fill:#000000;}
</style></svg>
