<?xml version="1.0" encoding="UTF-8" standalone="no"?>
<!-- Generator: Adobe Illustrator 25.3.0, SVG Export Plug-In . SVG Version: 6.00 Build 0)  -->

<svg
   version="1.1"
   id="Layer_1"
   x="0px"
   y="0px"
   viewBox="0 0 512 512"
   xml:space="preserve"
   width="512"
   height="512"
   xmlns="http://www.w3.org/2000/svg"
   xmlns:svg="http://www.w3.org/2000/svg"><defs
   id="defs42" />
<style
   type="text/css"
   id="style1">
	.st0{fill:#010101;}
	.st1{fill:#FFFFFF;}
	.st2{fill:#23BEF0;}
	.st3{fill:#01599D;}
	.st4{fill:#87C65B;}
	.st5{fill:#FDBC5A;}
	.st6{fill:#F58220;}
	.st7{fill:#EF3A38;}
	.st8{fill:#3A77B2;}
	.st9{fill:#823185;}
</style>
<rect
   style="fill:#23bef0;fill-opacity:1;stroke:#ffffff;stroke-width:0;stroke-linejoin:round"
   id="rect74-7"
   width="512"
   height="512"
   x="0"
   y="0"
   rx="0"
   ry="0" />
<g
   id="g6"
   transform="matrix(3.72093,0,0,3.72093,-1624.1859,-1789.3953)">
	<g
   id="g4">
		
	</g>
	
	<g
   id="g5">
		<path
   class="st1"
   d="m 480.3,539.4 c 3.4,-13.4 11.8,-20.2 25.2,-20.2 20.2,0 22.7,15.2 32.8,17.7 6.7,1.7 12.6,-0.9 17.7,-7.6 -3.4,13.4 -11.8,20.2 -25.2,20.2 -20.2,0 -22.7,-15.2 -32.8,-17.7 -6.8,-1.6 -12.7,0.9 -17.7,7.6 z M 455,569.7 c 3.4,-13.4 11.8,-20.2 25.2,-20.2 20.2,0 22.7,15.2 32.8,17.7 6.7,1.7 12.6,-0.9 17.7,-7.6 -3.4,13.4 -11.8,20.2 -25.2,20.2 -20.2,0 -22.7,-15.1 -32.8,-17.7 -6.7,-1.6 -12.7,0.9 -17.7,7.6 z"
   id="path5" />
	</g>
</g>













<style
   type="text/css"
   id="style1-4">
	.st0{fill:#000000;}
</style></svg>
