<?xml version="1.0" encoding="UTF-8" standalone="no"?>
<!-- Generator: Adobe Illustrator 25.3.0, SVG Export Plug-In . SVG Version: 6.00 Build 0)  -->

<svg
   version="1.1"
   id="Layer_1"
   x="0px"
   y="0px"
   viewBox="0 0 512 512"
   xml:space="preserve"
   width="512"
   height="512"
   xmlns="http://www.w3.org/2000/svg"
   xmlns:svg="http://www.w3.org/2000/svg"><defs
   id="defs42" />
<style
   type="text/css"
   id="style1">
	.st0{fill:#010101;}
	.st1{fill:#FFFFFF;}
	.st2{fill:#23BEF0;}
	.st3{fill:#01599D;}
	.st4{fill:#87C65B;}
	.st5{fill:#FDBC5A;}
	.st6{fill:#F58220;}
	.st7{fill:#EF3A38;}
	.st8{fill:#3A77B2;}
	.st9{fill:#823185;}
</style>
<rect
   style="fill:#23bef0;fill-opacity:1;stroke:#ffffff;stroke-width:0;stroke-linejoin:round"
   id="rect74-0"
   width="512"
   height="512"
   x="0"
   y="0"
   rx="0"
   ry="0" />














<style
   type="text/css"
   id="style1-4">
	.st0{fill:#000000;}
</style><g
   style="fill:#23bef0;fill-opacity:1;stroke:#ffffff;stroke-opacity:1"
   id="g75"
   transform="matrix(15.887034,0,0,15.887034,65.3556,70.4073)"><path
     d="m 4,19 5,-5 m 11,5 -5,-5 M 3.02832,10 10.2246,14.8166 c 0.6415,0.4277 0.9623,0.6415 1.309,0.7246 0.3063,0.0734 0.6257,0.0734 0.9321,0 0.3467,-0.0831 0.6675,-0.2969 1.309,-0.7246 L 20.971,10 M 10.2981,4.06879 4.49814,7.71127 C 3.95121,8.05474 3.67775,8.22648 3.4794,8.45864 3.30385,8.66412 3.17176,8.90305 3.09111,9.161 3,9.45244 3,9.77535 3,10.4212 V 16.8 c 0,1.1201 0,1.6802 0.21799,2.108 0.19174,0.3763 0.4977,0.6823 0.87403,0.874 C 4.51984,20 5.0799,20 6.2,20 h 11.6 c 1.1201,0 1.6802,0 2.108,-0.218 0.3763,-0.1917 0.6823,-0.4977 0.874,-0.874 C 21,18.4802 21,17.9201 21,16.8 V 10.4212 C 21,9.77535 21,9.45244 20.9089,9.161 20.8282,8.90305 20.6962,8.66412 20.5206,8.45864 20.3223,8.22648 20.0488,8.05474 19.5019,7.71127 l -5.8,-3.64248 C 13.0846,3.68116 12.776,3.48735 12.4449,3.4118 12.152,3.34499 11.848,3.34499 11.5551,3.4118 11.224,3.48735 10.9154,3.68116 10.2981,4.06879 Z"
     stroke="#000000"
     stroke-width="2"
     stroke-linecap="round"
     stroke-linejoin="round"
     id="path1"
     style="fill:#23bef0;fill-opacity:1;stroke:#ffffff;stroke-opacity:1" /></g></svg>
