<?xml version="1.0" encoding="UTF-8" standalone="no"?>
<!-- Generator: Adobe Illustrator 25.3.0, SVG Export Plug-In . SVG Version: 6.00 Build 0)  -->

<svg
   version="1.1"
   id="Layer_1"
   x="0px"
   y="0px"
   viewBox="0 0 512 512"
   xml:space="preserve"
   width="512"
   height="512"
   xmlns="http://www.w3.org/2000/svg"
   xmlns:svg="http://www.w3.org/2000/svg"><defs
   id="defs42" />
<style
   type="text/css"
   id="style1">
	.st0{fill:#010101;}
	.st1{fill:#FFFFFF;}
	.st2{fill:#23BEF0;}
	.st3{fill:#01599D;}
	.st4{fill:#87C65B;}
	.st5{fill:#FDBC5A;}
	.st6{fill:#F58220;}
	.st7{fill:#EF3A38;}
	.st8{fill:#3A77B2;}
	.st9{fill:#823185;}
</style>
<rect
   style="fill:#000000;fill-opacity:1;stroke:#ffffff;stroke-width:0;stroke-linejoin:round"
   id="rect74"
   width="512"
   height="512"
   x="0"
   y="0"
   rx="0"
   ry="0" />














<style
   type="text/css"
   id="style1-4">
	.st0{fill:#000000;}
</style><g
   style="fill:#ffffff;fill-opacity:1"
   id="g74"
   transform="matrix(0.19936432,0,0,0.19059377,36.8322,73.0282)"><path
     d="m 1821.63,637.76 c 0,-130.027 -43.627,-236.373 -116.054,-319.68 11.627,-30.187 50.347,-151.36 -11.2,-315.307 0,0 -94.72,-32 -310.4,122.134 -90.133,-26.454 -186.773,-39.68 -282.773,-40.107 -96,0.427 -192.64,13.653 -282.667,40.107 C 602.749,-29.227 507.923,2.773 507.923,2.773 c -61.547,163.947 -22.72,285.12 -11.094,315.307 -72.32,83.307 -116.266,189.653 -116.266,319.68 0,456.533 263.68,558.72 514.453,588.8 0,0 -180.267,111.68 -180.267,299.413 -64.32,30.507 -336.533,123.947 -437.333,-58.133 0,0 -59.627,-114.347 -173.013,-122.773 0,0 -110.294,-1.494 -7.787,72.426 0,0 74.027,36.694 125.44,174.294 0,0 57.173,289.92 489.067,159.68 4.373,2.24 1.6,140.266 1.6,168.533 h 777.173 c 0,0 1.28,-277.013 1.28,-365.12 0,-216.64 -144.64,-292.48 -185.28,-329.28 251.627,-29.44 515.733,-130.133 515.733,-587.84"
     fill-rule="evenodd"
     id="path1-4"
     style="fill:#ffffff;fill-opacity:1" /></g><path
   style="fill:#ffffff;fill-opacity:1;stroke:#ffffff;stroke-width:0;stroke-linejoin:round"
   d="M 178.9237,432 C 176,465.2623 153.6921,491.9291 112,512 h 288 c -41.9548,-20.0709 -64,-46.7377 -66.1357,-80 z"
   id="path74" /></svg>
