<?xml version="1.0" encoding="UTF-8" standalone="no"?>
<!-- Generator: Adobe Illustrator 25.3.0, SVG Export Plug-In . SVG Version: 6.00 Build 0)  -->

<svg
   version="1.1"
   id="Layer_1"
   x="0px"
   y="0px"
   viewBox="0 0 512 512"
   xml:space="preserve"
   width="512"
   height="512"
   xmlns="http://www.w3.org/2000/svg"
   xmlns:svg="http://www.w3.org/2000/svg"><defs
   id="defs42" />
<style
   type="text/css"
   id="style1">
	.st0{fill:#010101;}
	.st1{fill:#FFFFFF;}
	.st2{fill:#23BEF0;}
	.st3{fill:#01599D;}
	.st4{fill:#87C65B;}
	.st5{fill:#FDBC5A;}
	.st6{fill:#F58220;}
	.st7{fill:#EF3A38;}
	.st8{fill:#3A77B2;}
	.st9{fill:#823185;}
</style>
<rect
   style="fill:#3a77b2;fill-opacity:1;stroke:#ffffff;stroke-width:0;stroke-linejoin:round"
   id="rect74-2"
   width="512"
   height="512"
   x="0"
   y="0"
   rx="0"
   ry="0" />














<style
   type="text/css"
   id="style1-4">
	.st0{fill:#000000;}
</style><g
   style="fill:#ffffff;fill-opacity:1"
   id="g72"
   transform="matrix(0.55797877,0,0,0.57590559,113.1577,108.5682)"><g
     id="7935ec95c421cee6d86eb22ecd125aef"
     style="fill:#ffffff;fill-opacity:1">

<path
   style="clip-rule:evenodd;display:inline;fill:#ffffff;fill-opacity:1;fill-rule:evenodd"
   d="M 116.504,500.219 V 170.654 H 6.975 V 500.218 H 116.504 Z M 61.751,125.674 c 38.183,0 61.968,-25.328 61.968,-56.953 C 122.997,36.393 99.934,11.78 62.467,11.78 24.994,11.781 0.5,36.394 0.5,68.722 c 0,31.625 23.772,56.953 60.53,56.953 h 0.721 z m 115.373,374.545 c 0,0 1.437,-298.643 0,-329.564 H 286.67 v 47.794 h -0.727 c 14.404,-22.49 40.354,-55.533 99.44,-55.533 72.085,0 126.116,47.103 126.116,148.333 V 500.22 H 401.971 V 323.912 c 0,-44.301 -15.848,-74.531 -55.497,-74.531 -30.254,0 -48.284,20.38 -56.202,40.08 -2.897,7.012 -3.602,16.861 -3.602,26.711 v 184.047 z"
   id="path1-7">

</path>

</g></g></svg>
